<?xml version="1.0" standalone="no"?><!DOCTYPE svg PUBLIC "-//W3C//DTD SVG 1.1//EN" "http://www.w3.org/Graphics/SVG/1.1/DTD/svg11.dtd"><svg class="icon" width="200px" height="200.00px" viewBox="0 0 1024 1024" version="1.1" xmlns="http://www.w3.org/2000/svg"><path fill="#d81e06" d="M984 210.85H212.35L188.84 93.3a40.1 40.1 0 0 0-39.22-32.16H20a20 20 0 0 0 0 40h129.62l21.94 109.71 25.91 129.55L241.38 560l8 40 23.51 117.55a40.11 40.11 0 0 0 39.22 32.16h551.95a20 20 0 0 0 0-40H312.11L290.17 600h590.76a40 40 0 0 0 38-27.35l103-309.12A40 40 0 0 0 984 210.85zM880.93 560H282.17l-61.82-309.15H984z"  /><path fill="#d81e06" d="M393.64 885.04m-77.82 0a77.82 77.82 0 1 0 155.64 0 77.82 77.82 0 1 0-155.64 0Z"  /><path fill="#d81e06" d="M784.34 885.04m-77.82 0a77.82 77.82 0 1 0 155.64 0 77.82 77.82 0 1 0-155.64 0Z"  /></svg>