<?xml version="1.0" standalone="no"?><!DOCTYPE svg PUBLIC "-//W3C//DTD SVG 1.1//EN" "http://www.w3.org/Graphics/SVG/1.1/DTD/svg11.dtd"><svg t="1622734584975" class="icon" viewBox="0 0 1092 1024" version="1.1" xmlns="http://www.w3.org/2000/svg" p-id="2529" xmlns:xlink="http://www.w3.org/1999/xlink" width="213.28125" height="200"><defs><style type="text/css"></style></defs><path d="M659.911111 864.711111V113.777778c0-63.715556-50.062222-113.777778-113.777778-113.777778H113.777778C50.062222 0 0 50.062222 0 113.777778v637.155555c0 63.715556 50.062222 113.777778 113.777778 113.777778h47.786666c-2.275556 6.826667-2.275556 13.653333-2.275555 20.48 0 75.093333 61.44 136.533333 136.533333 136.533333s136.533333-61.44 136.533334-136.533333c0-6.826667 0-13.653333-2.275556-20.48H659.911111z m-364.088889 111.502222c-50.062222 0-91.022222-40.96-91.022222-91.022222s40.96-91.022222 91.022222-91.022222 91.022222 40.96 91.022222 91.022222-40.96 91.022222-91.022222 91.022222zM1069.511111 471.04L896.568889 250.311111h-197.973333v614.4h9.102222c0 6.826667-2.275556 13.653333-2.275556 20.48 0 75.093333 61.44 136.533333 136.533334 136.533333s136.533333-61.44 136.533333-136.533333c0-6.826667 0-13.653333-2.275556-20.48H1069.511111V471.04zM841.955556 976.213333c-50.062222 0-91.022222-40.96-91.022223-91.022222s40.96-91.022222 91.022223-91.022222 91.022222 40.96 91.022222 91.022222-40.96 91.022222-91.022222 91.022222zM1024 546.133333h-182.044444c-38.684444 0-68.266667-29.582222-68.266667-68.266666s29.582222-68.266667 68.266667-68.266667h122.88l59.164444 75.093333V546.133333z" p-id="2530" fill="#FF1493"></path></svg>