<?xml version="1.0" standalone="no"?><!DOCTYPE svg PUBLIC "-//W3C//DTD SVG 1.1//EN" "http://www.w3.org/Graphics/SVG/1.1/DTD/svg11.dtd"><svg t="1622734671626" class="icon" viewBox="0 0 1024 1024" version="1.1" xmlns="http://www.w3.org/2000/svg" p-id="5638" xmlns:xlink="http://www.w3.org/1999/xlink" width="200" height="200"><defs><style type="text/css"></style></defs><path d="M875.1616 102.4H149.6576c-50.8928 0-92.16 41.2672-92.16 92.16v529.1008c0 50.8928 41.2672 92.16 92.16 92.16h248.576c8.9088 0 16.1792 7.2192 16.1792 16.128l0.2048 98.2016c0.0512 13.056 14.7456 20.6848 25.4464 13.2096l164.1472-114.944c11.7248-8.192 25.7024-12.5952 39.9872-12.5952h230.9632c50.8928 0 92.16-41.2672 92.16-92.16V194.56c0-50.8928-41.2672-92.16-92.16-92.16z m-116.992 545.1264H273.152c-16.9472 0-30.72-13.7728-30.72-30.72s13.7728-30.72 30.72-30.72h484.9664c16.9472 0 30.72 13.7728 30.72 30.72s-13.7216 30.72-30.6688 30.72z m0-158.464H273.152c-16.9472 0-30.72-13.7728-30.72-30.72s13.7728-30.72 30.72-30.72h484.9664c16.9472 0 30.72 13.7728 30.72 30.72s-13.7216 30.72-30.6688 30.72z m0-158.464H273.152c-16.9472 0-30.72-13.7728-30.72-30.72s13.7728-30.72 30.72-30.72h484.9664c16.9472 0 30.72 13.7728 30.72 30.72s-13.7216 30.72-30.6688 30.72z" fill="#FF1493" p-id="5639"></path></svg>