<?xml version="1.0" standalone="no"?><!DOCTYPE svg PUBLIC "-//W3C//DTD SVG 1.1//EN" "http://www.w3.org/Graphics/SVG/1.1/DTD/svg11.dtd"><svg t="1622734643366" class="icon" viewBox="0 0 1024 1024" version="1.1" xmlns="http://www.w3.org/2000/svg" p-id="4792" xmlns:xlink="http://www.w3.org/1999/xlink" width="200" height="200"><defs><style type="text/css"></style></defs><path d="M956.928 221.7984v-31.6416c0-45.2608-36.6592-81.92-81.92-81.92H156.4672c-45.2608 0-81.92 36.6592-81.92 81.92v31.6416H956.928zM74.5472 283.2384v546.048c0 45.2608 36.6592 81.92 81.92 81.92H875.008c45.2608 0 81.92-36.6592 81.92-81.92V283.2384H74.5472z m455.4752 348.928h-32.2048c-142.3872 0-258.2528-115.2512-258.2528-256.8704 0-16.9472 13.7728-30.72 30.72-30.72s30.72 13.7728 30.72 30.72c0 107.776 88.32 195.4304 196.8128 195.4304h32.2048c108.544 0 196.8128-87.6544 196.8128-195.4304 0-16.9472 13.7728-30.72 30.72-30.72s30.72 13.7728 30.72 30.72c0 141.6192-115.8144 256.8704-258.2528 256.8704z" fill="#FF1493" p-id="4793"></path></svg>