<?xml version="1.0" standalone="no"?><!DOCTYPE svg PUBLIC "-//W3C//DTD SVG 1.1//EN" "http://www.w3.org/Graphics/SVG/1.1/DTD/svg11.dtd"><svg class="icon" width="200px" height="198.64px" viewBox="0 0 1031 1024" version="1.1" xmlns="http://www.w3.org/2000/svg"><path fill="#d81e06" d="M448.85248962 521.32121073H242.8419394a35.39700138 35.39700138 0 0 1-35.39700138-35.397002V280.50360941a35.39700138 35.39700138 0 0 1 35.39700138-35.397002h206.01055022a35.39700138 35.39700138 0 0 1 35.39700139 35.397002v205.42059932a35.39700138 35.39700138 0 0 1-35.39700139 35.397002zM242.8419394 268.70460875a11.79900068 11.79900068 0 0 0-11.79900004 11.79900066v205.42059932a11.79900068 11.79900068 0 0 0 11.79900004 11.79900067h206.01055022a11.79900068 11.79900068 0 0 0 11.79900004-11.79900067V280.50360941a11.79900068 11.79900068 0 0 0-11.79900004-11.79900067zM683.06265026 548.22293177a35.39700138 35.39700138 0 0 1-25.01388076-10.3831206L512.33111262 392.12215428a35.39700138 35.39700138 0 0 1 0-50.02776215L658.0487695 196.4947253a35.39700138 35.39700138 0 0 1 50.02776216 1e-8l145.59966681 145.59966681a35.39700138 35.39700138 0 0 1 0 50.02776216L708.07653166 537.83981117a35.39700138 35.39700138 0 0 1-25.01388141 10.3831206z m-1e-8-338.51332574a11.79900068 11.79900068 0 0 0-8.37729026 3.42170976L529.08569316 358.84897268a11.79900068 11.79900068 0 0 0-3.53970046 8.2593002 11.79900068 11.79900068 0 0 0 3.53970046 8.37729091L674.68536 521.08523062a11.79900068 11.79900068 0 0 0 16.63659047 0l145.71765688-145.59966684a11.79900068 11.79900068 0 0 0 0-16.63659111L691.20396105 213.1313158a11.79900068 11.79900068 0 0 0-8.14131079-3.42170977zM448.85248962 837.88839531H242.8419394a35.39700138 35.39700138 0 0 1-35.39700138-35.39700138V596.48084371a35.39700138 35.39700138 0 0 1 35.39700138-35.39700139h206.01055022a35.39700138 35.39700138 0 0 1 35.39700139 35.39700139v206.01055022a35.39700138 35.39700138 0 0 1-35.39700139 35.39700138zM242.8419394 584.68184367a11.79900068 11.79900068 0 0 0-11.79900004 11.79900004v206.01055022a11.79900068 11.79900068 0 0 0 11.79900004 11.79900004h206.01055022a11.79900068 11.79900068 0 0 0 11.79900004-11.79900004V596.48084371a11.79900068 11.79900068 0 0 0-11.79900004-11.79900004zM785.59596513 837.88839531H580.05737578a35.39700138 35.39700138 0 0 1-35.39700201-35.39700138V596.48084371a35.39700138 35.39700138 0 0 1 35.39700201-35.39700139H785.59596513a35.39700138 35.39700138 0 0 1 35.39700203 35.39700139v206.01055022a35.39700138 35.39700138 0 0 1-35.39700203 35.39700138zM580.05737578 584.68184367a11.79900068 11.79900068 0 0 0-11.79900067 11.79900004v206.01055022a11.79900068 11.79900068 0 0 0 11.79900067 11.79900004H785.59596513a11.79900068 11.79900068 0 0 0 11.79900068-11.79900004V596.48084371a11.79900068 11.79900068 0 0 0-11.79900068-11.79900004z"  /></svg>