<?xml version="1.0" standalone="no"?><!DOCTYPE svg PUBLIC "-//W3C//DTD SVG 1.1//EN" "http://www.w3.org/Graphics/SVG/1.1/DTD/svg11.dtd"><svg class="icon" width="200px" height="200.00px" viewBox="0 0 1024 1024" version="1.1" xmlns="http://www.w3.org/2000/svg"><path fill="#000000" d="M612.4 430.8a174.3 174.3 0 0 0 78.8-145.7c0-96.3-78.3-174.6-174.6-174.6s-174.5 78.3-174.5 174.6a174.4 174.4 0 0 0 78.7 145.7c-143.5 3.5-259.3 121.1-259.3 265.4v19.1c0 102.1 83.1 185.1 185.2 185.1h339.9c102.1 0 185.1-83 185.1-185.1v-19.1c0-144.3-115.7-261.9-259.3-265.4zM367.6 285.1c0-82.2 66.9-149 149-149s149 66.8 149 149c0 71.1-50.1 130.7-116.9 145.4h-64.1c-66.8-14.7-117-74.3-117-145.4z m184.2 171h54.3c132.4 0 240.1 107.7 240.1 240.1v19.1c0 88-71.6 159.6-159.6 159.6H346.7c-88 0-159.6-71.6-159.6-159.6v-19.1c0-132.4 107.7-240.1 240.1-240.1h54.2"  /></svg>